<?xml version="1.0" standalone="no"?><!DOCTYPE svg PUBLIC "-//W3C//DTD SVG 1.1//EN" "http://www.w3.org/Graphics/SVG/1.1/DTD/svg11.dtd"><svg t="1720938344329" class="icon" viewBox="0 0 1024 1024" version="1.1" xmlns="http://www.w3.org/2000/svg" p-id="4684" xmlns:xlink="http://www.w3.org/1999/xlink" width="200" height="200"><path d="M508.31775839 18.57954622L147.45802272 1016.46718042l359.01861356-187.79435108 360.85973566 187.79435108-359.01861355-997.8876342zM591.16820777-202.35498591c-9.20560534 0-16.57008987 1.84112081-18.41121198 7.36448452-3.68224161 3.68224161-3.68224161 12.88784826-3.68224162 27.61681604v128.87847739h-18.41121069L456.76636665-178.4204115v95.73829764c0 12.88784826 1.84112081 22.0934536 5.52336372 27.61681604 3.68224161 3.68224161 9.20560534 7.36448454 20.2523315 7.36448452v7.36448453h-57.07475287v-9.20560534c9.20560534 0 14.72896907-1.84112081 18.41121068-7.36448454 3.68224161-3.68224161 3.68224161-12.88784826 3.68224163-27.61681732V-174.73816988c0-11.04672615-1.84112081-18.41121069-3.68224163-22.09345231-1.84112081-3.68224161-9.20560534-5.52336372-16.57008988-5.52336372v-11.04672616H475.17757862l84.6915702 127.03735529V-167.37368535c0-14.72896907-1.84112081-22.0934536-5.52336372-27.61681604-3.68224161-3.68224161-9.20560534-7.36448454-20.2523315-7.36448452v-11.04672616h57.07475417v11.04672616z" p-id="4685"></path><path d="M513.84112081 64.60757293l-1.84112081 1.8411221v743.81292234l324.037313 171.22426248z" fill="#FFFFFF" p-id="4686"></path></svg>